<svg aria-hidden="true" style="position: absolute; width: 0; height: 0; overflow: hidden;" version="1.1" xmlns="http://www.w3.org/2000/svg" xmlns:xlink="http://www.w3.org/1999/xlink">
<defs>
<symbol id="logout" viewBox="0 0 32 32">
<path fill="#494949" style="fill: var(--color1, #494949)" d="M29.2 14.133c-0.133-0.133-0.133-0.267-0.267-0.4l-2.667-2.667c-0.533-0.533-1.333-0.533-1.867 0s-0.533 1.333 0 1.867l0.4 0.4h-3.467c-0.8 0-1.333 0.533-1.333 1.333s0.533 1.333 1.333 1.333h3.467l-0.4 0.4c-0.533 0.533-0.533 1.333 0 1.867 0.267 0.267 0.667 0.4 0.933 0.4s0.667-0.133 0.933-0.4l2.667-2.667c0.133-0.133 0.267-0.267 0.267-0.4 0.133-0.4 0.133-0.667 0-1.067z"></path>
<path fill="#494949" style="fill: var(--color1, #494949)" d="M22.667 18.667c-0.8 0-1.333 0.533-1.333 1.333v1.333c0 0.8-0.533 1.333-1.333 1.333h-1.333v-11.467c0-1.733-1.067-3.2-2.533-3.733l-2.133-0.8h6c0.8 0 1.333 0.533 1.333 1.333v1.333c0 0.8 0.533 1.333 1.333 1.333s1.333-0.533 1.333-1.333v-1.333c0-2.267-1.733-4-4-4h-13.333c-0.133 0-0.267 0-0.4 0.133-0.133 0-0.267 0.133-0.267 0.133l-0.133 0.133c-0.133 0-0.267 0.133-0.267 0.267v0.133c-0.133 0-0.267 0.133-0.267 0.267v18.933c0 0.533 0.4 1.067 0.8 1.2l8.8 3.333c0.267 0.133 0.667 0.133 0.933 0.133 0.533 0 1.067-0.133 1.467-0.533 0.667-0.533 1.2-1.333 1.2-2.133v-0.667h1.333c2.267 0 4-1.733 4-4v-1.333c0.133-0.667-0.4-1.333-1.2-1.333zM8 23.067v-15.867l7.067 2.667c0.533 0.267 0.933 0.8 0.933 1.333v14.8l-8-2.933z"></path>
</symbol>
</defs>
</svg>
